<?xml version="1.0" encoding="utf-8"?>
<!-- Generator: Adobe Illustrator 26.0.1, SVG Export Plug-In . SVG Version: 6.00 Build 0)  -->
<svg version="1.1" xmlns="http://www.w3.org/2000/svg" xmlns:xlink="http://www.w3.org/1999/xlink" x="0px" y="0px"
	 viewBox="0 0 1335.1 213.1" style="enable-background:new 0 0 1335.1 213.1;" xml:space="preserve">
<style type="text/css">
	.st0{fill:#F0F0F0;}
	.st1{fill:#002D9C;}
	.st2{fill:#FFFFFF;}
	.st3{fill-rule:evenodd;clip-rule:evenodd;fill:#FFFFFF;}
	.st4{fill:none;stroke:#002D9C;stroke-miterlimit:10;}
	.st5{fill:none;stroke:#002D9C;stroke-miterlimit:10;stroke-dasharray:3,2,3,2,3,2;}
	.st6{fill:#24A148;}
	.st7{fill:#DA1E28;}
	.st8{font-family:'IBMPlexSans-SemiBoldItalic';}
	.st9{font-size:12px;}
	.st10{font-family:'IBMPlexSans-Bold';}
	.st11{font-size:14px;}
	.st12{font-family:'IBMPlexSans';}
</style>
<g id="Background">
	<rect x="54.3" y="35.6" class="st0" width="141.4" height="152.1"/>
	<rect x="364.7" y="37.5" class="st0" width="933.6" height="152.1"/>
	<g>
		<g>
			
				<ellipse transform="matrix(0.1549 -0.9879 0.9879 0.1549 21.3049 195.6709)" class="st1" cx="125" cy="85.4" rx="27.2" ry="27.2"/>
		</g>
		<g id="deployable-architecture_00000029021259687710194720000014881154405488294571_">
			<path class="st2" d="M130.8,75.5L130.8,75.5c0.5,0,0.9,0.4,0.9,0.9v18.4c0,0.5-0.4,0.9-0.9,0.9l0,0c-0.5,0-0.9-0.4-0.9-0.9V76.4
				C129.9,75.9,130.3,75.5,130.8,75.5z"/>
			<path class="st3" d="M130.8,77.5c2.3,0,4.1-1.9,4.1-4.1c0-2.3-1.9-4.1-4.1-4.1c-2.3,0-4.1,1.9-4.1,4.1
				C126.6,75.7,128.5,77.5,130.8,77.5z M130.8,75.5c1.1,0,2.1-0.9,2.1-2.1s-0.9-2.1-2.1-2.1s-2.1,0.9-2.1,2.1S129.6,75.5,130.8,75.5
				z"/>
			<circle class="st2" cx="130.8" cy="99.4" r="2.1"/>
			<path class="st2" d="M118.8,95.3L118.8,95.3c0.5,0,0.9-0.4,0.9-0.9V75.9c0-0.5-0.4-0.9-0.9-0.9l0,0c-0.5,0-0.9,0.4-0.9,0.9v18.4
				C117.9,94.9,118.3,95.3,118.8,95.3z"/>
			<path class="st3" d="M119,93.2c2.3,0,4.1,1.9,4.1,4.1s-1.9,4.1-4.1,4.1c-2.3,0-4.1-1.9-4.1-4.1S116.7,93.2,119,93.2z M119,95.3
				c1.1,0,2.1,0.9,2.1,2.1s-0.9,2.1-2.1,2.1c-1.1,0-2.1-0.9-2.1-2.1S117.9,95.3,119,95.3z"/>
			<circle class="st2" cx="119" cy="71.3" r="2.1"/>
			<path class="st2" d="M115.1,79.4L115.1,79.4c0,0.5,0.4,0.9,0.9,0.9l18.4,0c0.5,0,0.9-0.4,0.9-0.9l0,0c0-0.5-0.4-0.9-0.9-0.9H116
				C115.5,78.5,115.1,78.9,115.1,79.4z"/>
			<path class="st3" d="M117.2,79.4c0,2.3-1.9,4.1-4.1,4.1c-2.3,0-4.1-1.9-4.1-4.1c0-2.3,1.9-4.1,4.1-4.1
				C115.3,75.2,117.2,77.1,117.2,79.4z M115.1,79.4c0,1.1-0.9,2.1-2.1,2.1c-1.1,0-2.1-0.9-2.1-2.1c0-1.1,0.9-2.1,2.1-2.1
				C114.2,77.3,115.1,78.2,115.1,79.4z"/>
			<circle class="st2" cx="139.3" cy="79.4" r="1.8"/>
			<path class="st2" d="M134.9,91.5L134.9,91.5c0,0.6-0.5,1-1,1h-18.2c-0.6,0-1-0.5-1-1l0,0c0-0.6,0.5-1,1-1h18.2
				C134.5,90.5,134.9,90.9,134.9,91.5z"/>
			<path class="st3" d="M132.9,91.4c0,2.3,1.9,4.1,4.1,4.1c2.3,0,4.1-1.9,4.1-4.1c0-2.3-1.9-4.1-4.1-4.1
				C134.7,87.2,132.9,89.1,132.9,91.4z M134.9,91.4c0,1.1,0.9,2.1,2.1,2.1c1.1,0,2.1-0.9,2.1-2.1c0-1.1-0.9-2.1-2.1-2.1
				C135.9,89.3,134.9,90.2,134.9,91.4z"/>
			<circle class="st2" cx="111" cy="91.4" r="2.1"/>
		</g>
	</g>
	<g>
		<g>
			<line class="st4" x1="194.6" y1="107.5" x2="343.4" y2="107.5"/>
			<g>
				<polygon class="st1" points="342.7,110 347,107.5 342.7,105 				"/>
			</g>
		</g>
	</g>
	<g>
		<circle class="st1" cx="408.4" cy="101.4" r="27.2"/>
		<g>
			<rect x="394.4" y="112.4" class="st2" width="28" height="2"/>
			<path class="st2" d="M417.8,95.4c0.8-0.8,0.8-2,0-2.8l0,0l-3.6-3.6c-0.8-0.8-2-0.8-2.8,0l0,0l-15,15v6.4h6.4L417.8,95.4z
				 M412.8,90.4l3.6,3.6l-3,3l-3.6-3.6L412.8,90.4z M398.4,108.4v-3.6l10-10l3.6,3.6l-10,10H398.4z"/>
		</g>
	</g>
	<g>
		<circle class="st1" cx="507.6" cy="101.4" r="27.2"/>
		<path class="st2" d="M519.3,94.7l-5-5c-0.2-0.2-0.4-0.3-0.7-0.3h-16c-1.1,0-2,0.9-2,2v20c0,1.1,0.9,2,2,2h20c1.1,0,2-0.9,2-2v-16
			C519.6,95.2,519.5,94.9,519.3,94.7z M503.6,91.4h8v4h-8V91.4z M511.6,111.4h-8v-8h8V111.4z M513.6,111.4v-8c0-1.1-0.9-2-2-2h-8
			c-1.1,0-2,0.9-2,2v8h-4v-20h4v4c0,1.1,0.9,2,2,2h8c1.1,0,2-0.9,2-2v-3.6l4,4v15.6H513.6z"/>
	</g>
	<g>
		<circle class="st1" cx="604.8" cy="103" r="27.2"/>
		<g>
			<path class="st2" d="M604.8,109c-3.3,0-6-2.7-6-6c0-3.3,2.7-6,6-6s6,2.7,6,6c0,3.3-2.6,6-5.9,6C604.9,109,604.8,109,604.8,109z
				 M604.8,99c-2.2,0-4,1.7-4,3.8c0,0.1,0,0.1,0,0.2c0,2.2,1.7,4,3.8,4c0.1,0,0.1,0,0.2,0c2.2,0,4-1.7,4-3.8c0-0.1,0-0.1,0-0.2
				c0-2.2-1.7-4-3.8-4C604.9,99,604.9,99,604.8,99z"/>
			<path class="st2" d="M618.1,98l-2.4-4.1c-0.5-0.8-1.5-1.2-2.4-0.9l-2.4,0.8c-0.4-0.3-0.9-0.5-1.3-0.8l-0.5-2.5
				c-0.2-0.9-1-1.6-2-1.6h-4.7c-1,0-1.8,0.7-2,1.6l-0.5,2.5c-0.5,0.2-0.9,0.5-1.3,0.8l-2.4-0.8c-0.9-0.3-1.9,0.1-2.4,0.9l-2.4,4.1
				c-0.5,0.8-0.3,1.9,0.4,2.5l1.9,1.7c0,0.3,0,0.5,0,0.8c0,0.3,0,0.5,0,0.8l-1.9,1.7c-0.7,0.6-0.9,1.7-0.4,2.5l2.4,4.1
				c0.5,0.8,1.5,1.2,2.4,0.9l2.4-0.8c0.4,0.3,0.9,0.5,1.3,0.8l0.5,2.5c0.2,0.9,1,1.6,2,1.6h4.4v-2h-4.4l-0.7-3.6
				c-1-0.4-1.9-0.9-2.7-1.6l-3.4,1.2l-2.4-4.1l2.7-2.4c-0.2-1-0.2-2.1,0-3.1l-2.7-2.4l2.4-4.1l3.4,1.2c0.8-0.7,1.7-1.2,2.7-1.6
				l0.7-3.6h4.7l0.7,3.6c1,0.4,1.9,0.9,2.7,1.6l3.4-1.2l2.4,4.1l-2.8,2.5l1.3,1.5l2.8-2.5C618.4,99.9,618.6,98.9,618.1,98z"/>
			<polygon class="st2" points="612.8,113.2 610.2,110.6 608.8,112 612.8,116 619.8,109 618.4,107.6 			"/>
		</g>
	</g>
	<circle class="st1" cx="828.4" cy="102.1" r="27.2"/>
	<g>
		<circle class="st1" cx="927.6" cy="102.8" r="27.2"/>
		<g>
			<path class="st2" d="M934.1,88.8l-6,6l1.4,1.4l3.6-3.6v22.2h-16v-16h-2v16c0,1.1,0.9,2,2,2h16c1.1,0,2-0.9,2-2V92.7l3.6,3.6
				l1.4-1.4L934.1,88.8z"/>
			<path class="st2" d="M927.1,110.8h-4c-1.1,0-2-0.9-2-2v-4c0-1.1,0.9-2,2-2h4c1.1,0,2,0.9,2,2v4
				C929.1,109.9,928.2,110.8,927.1,110.8z M923.1,104.8v4h4v-4H923.1z"/>
		</g>
	</g>
	<g>
		<g>
			<line class="st4" x1="435.5" y1="101.4" x2="466.6" y2="101.4"/>
			<g>
				<polygon class="st1" points="465.9,103.9 470.2,101.4 465.9,98.9 				"/>
			</g>
		</g>
	</g>
	<g>
		<path class="st2" d="M841.4,105.1c0-3.3-2.7-6-6-6c-3.3,0-6,2.7-6,6c0,1.7,0.7,3.3,2,4.5v7.5l4-1.9l4,1.9v-7.5
			C840.7,108.4,841.4,106.8,841.4,105.1z M837.4,113.9l-2-0.9l-2,0.9v-3.2c1.3,0.5,2.7,0.5,4,0V113.9z M835.4,109.1
			c-2.2,0-4-1.8-4-4s1.8-4,4-4c2.2,0,4,1.8,4,4C839.4,107.3,837.6,109.1,835.4,109.1z"/>
		<path class="st2" d="M836.4,90.1h-3v-1c0-1.1-0.9-2-2-2h-8c-1.1,0-2,0.9-2,2v1h-3c-1.1,0-2,0.9-2,2v21c0,1.1,0.9,2,2,2h9v-2h-9
			v-21h3v3h12v-3h3v5h2v-5C838.4,91,837.5,90.1,836.4,90.1z M831.4,93.1h-8v-4h8V93.1z"/>
	</g>
	<g>
		<circle class="st1" cx="1145" cy="107.5" r="27.2"/>
		<g>
			<path class="st2" d="M1145,113.8c-3.4,0-6.2-2.8-6.2-6.2c0-3.4,2.8-6.2,6.2-6.2s6.2,2.8,6.2,6.2
				C1151.2,111,1148.4,113.8,1145,113.8z M1145,102.9c-2.6,0-4.6,2.1-4.6,4.6s2.1,4.6,4.6,4.6c2.6,0,4.6-2.1,4.6-4.6
				C1149.6,104.9,1147.6,102.9,1145,102.9z"/>
			<path class="st2" d="M1145,120c-7.3-0.2-13.6-5.1-15.5-12.1l-0.1-0.4l0.1-0.4c2-7,8.3-11.9,15.5-12.1c7.3,0.2,13.6,5.1,15.5,12.1
				l0.1,0.4l-0.1,0.4C1158.5,114.9,1152.2,119.8,1145,120z M1131.3,107.5c1.9,6,7.4,10.1,13.7,10.3c6.3-0.2,11.8-4.3,13.7-10.3
				c-1.9-6-7.4-10.1-13.7-10.3C1138.7,97.4,1133.2,101.6,1131.3,107.5z"/>
		</g>
	</g>
	<g>
		<circle class="st1" cx="1246.1" cy="105.5" r="27.2"/>
		<g>
			<polygon class="st2" points="1256.6,114.6 1254.6,112.6 1254.6,110 1252.6,110 1252.6,113.4 1255.2,116 			"/>
			<path class="st2" d="M1253.6,120c-3.9,0-7-3.1-7-7c0-3.9,3.1-7,7-7s7,3.1,7,7C1260.6,116.9,1257.4,120,1253.6,120z M1253.6,108
				c-2.8,0-5,2.2-5,5c0,2.8,2.2,5,5,5c2.8,0,5-2.2,5-5C1258.6,110.2,1256.3,108,1253.6,108z"/>
			<path class="st2" d="M1245.6,117c-6.6,0-12-5.4-12-12h-2c0,7.7,6.3,14,14,14V117z"/>
			<path class="st2" d="M1241.6,97h-4.9c4.4-4.9,12-5.4,16.9-1c2.5,2.3,4,5.5,4,9h2c0-7.7-6.2-14-14-14c-3.8,0-7.4,1.5-10,4.2V91h-2
				v8h8V97z"/>
		</g>
	</g>
	<g>
		<g>
			<line class="st4" x1="534.8" y1="103.9" x2="566" y2="103.9"/>
			<g>
				<polygon class="st1" points="565.2,106.4 569.6,103.9 565.2,101.4 				"/>
			</g>
		</g>
	</g>
	<g>
		<g>
			<line class="st4" x1="855.4" y1="101.6" x2="886.6" y2="101.6"/>
			<g>
				<polygon class="st1" points="885.8,104.1 890.2,101.6 885.8,99.1 				"/>
			</g>
		</g>
	</g>
	<g>
		<g>
			<line class="st4" x1="1172.2" y1="106.5" x2="1203.3" y2="106.5"/>
			<g>
				<polygon class="st1" points="1202.6,109 1206.9,106.5 1202.6,104.1 				"/>
			</g>
		</g>
	</g>
	<g>
		<g>
			<line class="st4" x1="632" y1="104.1" x2="780.7" y2="104.1"/>
			<g>
				<polygon class="st1" points="780,106.6 784.3,104.1 780,101.6 				"/>
			</g>
		</g>
	</g>
	<g>
		<g>
			<line class="st4" x1="954.7" y1="105.1" x2="1103.5" y2="105.1"/>
			<g>
				<polygon class="st1" points="1102.8,107.5 1107.1,105.1 1102.8,102.6 				"/>
			</g>
		</g>
	</g>
	<g>
		<g>
			<polyline class="st5" points="407.4,162.3 407.4,181.8 1245.3,181.8 1246.6,181.8 1246.6,158.7 			"/>
			<g>
				<polygon class="st1" points="404.9,163 407.4,158.7 409.9,163 				"/>
			</g>
		</g>
	</g>
	<g>
		<circle class="st2" cx="726.8" cy="104.1" r="6.8"/>
		<path class="st6" d="M726.8,95c-5,0-9.1,4.1-9.1,9.1c0,5,4.1,9.1,9.1,9.1c5,0,9.1-4.1,9.1-9.1C735.9,99.1,731.8,95,726.8,95z
			 M725.5,107.7l-3.2-3.2l1-1l2.2,2.2l4.8-4.8l1,1L725.5,107.7z"/>
	</g>
	<g>
		<g>
			<polyline class="st5" points="708.6,103 708.6,63.1 708.6,66.4 708.6,43.5 708.2,43.5 407.4,43.5 407.4,62.8 			"/>
			<g>
				<polygon class="st1" points="404.9,62.1 407.4,66.4 409.9,62.1 				"/>
			</g>
		</g>
	</g>
	<g>
		<ellipse class="st2" cx="708.6" cy="86" rx="7.3" ry="6.4"/>
		<path class="st7" d="M708.6,76.9c-5,0-9.1,4-9.1,9c0,0,0,0.1,0,0.1c0,5,4,9.1,9,9.1c0,0,0.1,0,0.1,0c5,0,9.1-4,9.1-9
			c0,0,0-0.1,0-0.1c0-5-4-9.1-9-9.1C708.7,76.9,708.7,76.9,708.6,76.9z M712.2,90.5l-8.1-8.1l1-1l8.1,8.1L712.2,90.5z"/>
	</g>
</g>
<g id="Text">
	<text transform="matrix(1 0 0 1 67.7046 145.0962)"><tspan x="0" y="0" class="st8 st9">Choose a deployable </tspan><tspan x="24.4" y="14.4" class="st8 st9">architecture</tspan></text>
	<text transform="matrix(1 0 0 1 51.9912 28.3407)" class="st10 st11">IBM Cloud catalog</text>
	<text transform="matrix(1 0 0 1 218.6982 127.2507)"><tspan x="0" y="0" class="st8 st9">Add to project as a </tspan><tspan x="3.2" y="14.4" class="st8 st9">new configuration</tspan></text>
	<text transform="matrix(1 0 0 1 362.3531 28.3411)" class="st10 st11">Project</text>
	<text transform="matrix(1 0 0 1 382.3934 148.4598)" class="st12 st9">Configure</text>
	<text transform="matrix(1 0 0 1 494.7018 148.4595)" class="st12 st9">Save</text>
	<text transform="matrix(1 0 0 1 582.7316 148.4594)" class="st12 st9">Validate</text>
	<text transform="matrix(1 0 0 1 805.7519 148.4596)" class="st12 st9">Approve</text>
	<text transform="matrix(1 0 0 1 908.8522 148.4597)" class="st12 st9">Deploy</text>
	<text transform="matrix(1 0 0 1 1226.4481 148.4596)" class="st12 st9">Update</text>
	<text transform="matrix(1 0 0 1 1124.158 148.4596)" class="st12 st9">Monitor</text>
	<text transform="matrix(1 0 0 1 675.5298 130.8735)"><tspan x="0" y="0" class="st8 st9">Project runs</tspan><tspan x="-18.7" y="14.4" class="st8 st9">compliance checks</tspan></text>
	<text transform="matrix(1 0 0 1 977.1814 130.8734)"><tspan x="0" y="0" class="st8 st9">Schematics deploys</tspan><tspan x="27.4" y="14.4" class="st8 st9">resources</tspan></text>
</g>
</svg>
